{"title":"Operation Endgame.2010.DVDRip.H264.FEEL-FREE WTRG","uid":5720091,"size":796028108,"categoryP":"video","categoryS":"movies","magnet":"?xt=urn:btih:acae16c1ec96acd177950b04dae0ca7894d9b533&amp;dn=Operation+Endgame.2010.DVDRip.H264.FEEL-FREE+WTRG&amp;tr=udp%3A%2F%2Ftracker.openbittorrent.com%3A80&amp;tr=udp%3A%2F%2Fopen.demonii.com%3A1337&amp;tr=udp%3A%2F%2Ftracker.coppersurfer.tk%3A6969&amp;tr=udp%3A%2F%2Fexodus.desync.com%3A6969","seeders":0,"leechers":1,"uploader":"neon","files":10,"time":1280257355,"description":"Genre:Action | Drama | Comedy\nLanguage:\nIMDb:http://www.imdb.com/title/tt1268987/\nSource:NTSC\n\nGeneral\nComplete name :Operation.Endgame.2010.DVDRip.H264.FEEL-FREE.mp4\nFormat : MPEG-4\nFormat profile : Base Media\nCodec ID : isom\nFile size : 759 MiB\nDuration : 1h 22mn\nOverall bit rate : 1 292 Kbps\n &lt;a href=&quot;\nhttp://www.starshare.ro/bitbucket/Operation.Endgame.2010.DVDRip.H264.FEEL-FREE.mp4_thumbs_%5B2010.07.27_19.14.12%5D.jpg&quot; rel=&quot;nofollow&quot; target=&quot;_NEW&quot;&gt;\nhttp://www.starshare.ro/bitbucket/Operation.Endgame.2010.DVDRip.H264.FEEL-FREE.mp4_thumbs_%5B2010.07.27_19.14.12%5D.jpg&lt;/a&gt;\n &lt;a href=&quot;\nhttp://www.starshare.ro/bitbucket/Operation.Endgame.2010.DVDRip.H264.FEEL-FREE.mp4_snapshot_01.08.53_%5B2010.07.27_19.18.36%5D.jpg&quot; rel=&quot;nofollow&quot; target=&quot;_NEW&quot;&gt;\nhttp://www.starshare.ro/bitbucket/Operation.Endgame.2010.DVDRip.H264.FEEL-FREE.mp4_snapshot_01.08.53_%5B2010.07.27_19.18.36%5D.jpg&lt;/a&gt;\n &lt;a href=&quot;\nhttp://www.starshare.ro/bitbucket/Operation.Endgame.2010.DVDRip.H264.FEEL-FREE.mp4_snapshot_01.15.48_%5B2010.07.27_19.18.46%5D.jpg&quot; rel=&quot;nofollow&quot; target=&quot;_NEW&quot;&gt;\nhttp://www.starshare.ro/bitbucket/Operation.Endgame.2010.DVDRip.H264.FEEL-FREE.mp4_snapshot_01.15.48_%5B2010.07.27_19.18.46%5D.jpg&lt;/a&gt;\n\nVideo #1\nID : 1\nFormat : MPEG-4 Visual\nCodec ID : 20\nDuration : 1h 22mn\nBit rate mode : Variable\nBit rate : 1 159 Kbps\nWidth : 688 pixels\nHeight : 288 pixels\nDisplay aspect ratio : 2.35:1\nFrame rate mode : Constant\nFrame rate : 29.970 fps\nResolution : 24 bits\nColorimetry : 4:2:0\nScan type : Progressive\nBits/(Pixel*Frame) : 0.195\nStream size : 681 MiB (90%)\nAudio #2\nID : 2\nFormat : AAC\nFormat/Info : Advanced Audio Codec\nFormat version : Version 4\nFormat profile : LC\nFormat settings, SBR : No\nCodec ID : 40\nDuration : 1h 22mn\nBit rate mode : Variable\nBit rate : 128 Kbps\nChannel(s) : 2 channels\nChannel positions : L R\nSampling rate : 48.0 KHz\nResolution : 16 bits\nStream size : 75.0 MiB (10%)\nPlot:\nA battle ensues among groups of government spy teams in an underground facility after their boss is assassinated.\n &lt;a href=&quot;\nhttp://img801.imageshack.us/img801/3511/28mfoyb.jpg&quot; rel=&quot;nofollow&quot; target=&quot;_NEW&quot;&gt;\nhttp://img801.imageshack.us/img801/3511/28mfoyb.jpg&lt;/a&gt;","torrent":{"xt":"urn:btih:acae16c1ec96acd177950b04dae0ca7894d9b533","amp;dn":"Operation+Endgame.2010.DVDRip.H264.FEEL-FREE+WTRG","amp;tr":["udp%3A%2F%2Ftracker.openbittorrent.com%3A80","udp%3A%2F%2Fopen.demonii.com%3A1337","udp%3A%2F%2Ftracker.coppersurfer.tk%3A6969","udp%3A%2F%2Fexodus.desync.com%3A6969"],"infoHash":"acae16c1ec96acd177950b04dae0ca7894d9b533","infoHashBuffer":{"type":"Buffer","data":[172,174,22,193,236,150,172,209,119,149,11,4,218,224,202,120,148,217,181,51]},"announce":[],"urlList":[]}}